<?xml version="1.0" standalone="no"?>
<!DOCTYPE svg PUBLIC "-//W3C//DTD SVG 20010904//EN"
 "http://www.w3.org/TR/2001/REC-SVG-20010904/DTD/svg10.dtd">
<svg version="1.0" xmlns="http://www.w3.org/2000/svg"
 width="512.000000pt" height="512.000000pt" viewBox="0 0 512.000000 512.000000"
 preserveAspectRatio="xMidYMid meet">

<g transform="translate(0.000000,512.000000) scale(0.100000,-0.100000)"
fill="#000000" stroke="none">
<path d="M860 3894 c-99 -26 -180 -74 -260 -154 -149 -149 -202 -341 -150
-544 28 -109 63 -170 150 -256 121 -122 236 -170 407 -170 204 0 368 93 488
278 l28 42 108 0 109 0 0 -95 c0 -133 -4 -130 239 -189 l192 -48 151 4 150 3
24 28 c32 38 31 72 -5 108 -29 29 -31 29 -145 29 l-116 0 0 285 0 286 -25 24
c-15 16 -36 25 -55 25 -19 0 -40 -9 -55 -25 l-25 -24 0 -275 0 -274 -82 21
-83 22 0 344 0 345 130 33 130 32 1018 1 1017 0 0 -410 0 -410 -119 0 -118 0
-105 50 c-162 76 -245 95 -413 94 -169 -1 -247 -19 -403 -94 -103 -49 -106
-50 -202 -50 -107 0 -141 -14 -154 -64 -16 -63 39 -106 133 -106 l50 0 3 -682
3 -683 27 -52 c15 -28 43 -63 61 -77 73 -56 75 -56 489 -56 426 0 427 1 496
70 71 71 67 20 70 787 l3 692 310 3 311 3 24 28 24 28 0 520 0 520 -25 24 -24
25 -1258 0 -1258 0 -175 -45 c-133 -33 -179 -49 -192 -66 -15 -17 -18 -41 -18
-120 l0 -99 -109 0 -109 0 -31 55 c-68 120 -213 227 -352 260 -80 18 -207 18
-279 -1z m229 -155 c118 -27 238 -125 288 -236 34 -77 42 -196 19 -276 -24
-83 -90 -173 -164 -224 -74 -50 -113 -63 -212 -70 -60 -4 -88 -1 -139 17 -296
100 -384 458 -166 676 100 101 242 144 374 113z m3441 -399 l0 -410 -85 0 -85
0 0 410 0 410 85 0 85 0 0 -410z m-2790 0 l0 -80 -83 0 -83 0 0 80 0 80 83 0
83 0 0 -80z m1878 -446 c35 -8 104 -33 153 -56 l89 -41 0 -548 0 -549 -410 0
-410 0 0 548 0 549 88 41 c171 80 310 96 490 56z m240 -1412 c3 -47 0 -56 -27
-82 l-29 -30 -347 0 c-424 0 -415 -3 -415 116 l0 54 408 -2 407 -3 3 -53z"/>
<path d="M2903 3620 c-11 -5 -43 -25 -70 -44 l-50 -36 -39 21 c-60 31 -165 24
-230 -16 -70 -44 -107 -108 -112 -196 -5 -82 18 -139 78 -193 131 -118 344
-57 397 113 9 28 12 64 8 93 -5 46 -5 47 40 78 89 61 107 105 63 154 -27 29
-55 38 -85 26z m-208 -225 c51 -50 18 -135 -52 -135 -39 0 -83 37 -83 69 0 77
84 118 135 66z"/>
<path d="M3551 3554 c-62 -79 44 -180 114 -109 32 31 34 86 5 115 -31 31 -93
27 -119 -6z"/>
<path d="M3881 3554 c-26 -33 -27 -75 -2 -105 14 -18 29 -24 61 -24 50 0 80
30 80 79 0 71 -96 105 -139 50z"/>
<path d="M2901 3209 c-33 -13 -50 -38 -51 -74 -1 -81 97 -112 147 -46 19 25
15 68 -9 95 -28 30 -55 38 -87 25z"/>
</g>
</svg>
