<?xml version="1.0" encoding="iso-8859-1"?>
<!-- Generator: Adobe Illustrator 19.0.0, SVG Export Plug-In . SVG Version: 6.00 Build 0)  -->
<svg version="1.1" id="Layer_1" xmlns="http://www.w3.org/2000/svg" xmlns:xlink="http://www.w3.org/1999/xlink" x="0px" y="0px"
	 viewBox="0 0 460.042 460.042" style="enable-background:new 0 0 460.042 460.042;" xml:space="preserve">
<g>
	<g>
		<g>
			<path d="M287.523,224.484v-27.015l-22.807,3.276c-6.099,0.879-12.209-0.249-17.568-3.191c-1.118,2.036-2.395,3.971-3.804,5.8
				h3.696C263.673,203.354,278.477,211.597,287.523,224.484z"/>
			<circle cx="245.451" cy="33.06" r="33.06"/>
			<path d="M152.77,370.686l0.571-0.284c-0.822-0.771,1.507,1.574-27.72-28.149l-6.049,3.006c-9.159,4.55-12.99,15.597-8.614,24.84
				l37.48,79.196c4.436,9.376,15.633,13.371,24.997,8.938c9.372-4.435,13.373-15.626,8.938-24.997L152.77,370.686z"/>
			<path d="M289.957,345.259l-5.913-2.938c-28.95,29.441-26.885,27.368-27.722,28.148l0.437,0.217l-29.601,62.55
				c-4.436,9.371-0.434,20.562,8.938,24.997c9.363,4.433,20.56,0.439,24.997-8.938l37.479-79.196
				C302.946,360.855,299.116,349.809,289.957,345.259z"/>
			<path d="M226.42,361.277c6.16,6.059,16.066,5.973,22.122-0.186l37.123-37.753c3.266-3.32,4.881-7.923,4.408-12.556
				c-0.688-6.739-5.404-52.971-6.028-59.08c-0.558-19.915-16.982-35.975-37.005-35.975h-18.399
				c-6.216,3.271-13.285,5.132-20.784,5.132c-7.335,0-14.482-1.817-20.784-5.132h-24.382c-20.023,0-36.447,16.06-37.005,35.975
				c-0.623,6.109-5.34,52.34-6.028,59.08c-0.472,4.633,1.143,9.236,4.408,12.556l37.123,37.753
				c6.057,6.161,15.961,6.243,22.122,0.186s6.244-15.961,0.186-22.122l-31.969-32.511c5.795-56.801,5.422-52.836,5.429-53.927
				c0.009-1.759,1.439-3.178,3.197-3.173c1.758,0.005,3.18,1.431,3.18,3.189v48.582l28.829,29.318
				c5.498,5.592,8.142,12.919,7.961,20.184h9.482c-0.181-7.266,2.463-14.593,7.961-20.184l28.625-29.111V252.96
				c0-1.772,1.401-3.227,3.172-3.292c1.771-0.066,3.278,1.28,3.408,3.047c0,0.001,0,0.001,0,0.001
				c0.08,1.089,0.699,7.348,5.429,53.928l-31.969,32.511C220.176,345.316,220.26,355.221,226.42,361.277z"/>
			<path d="M207.858,143.645c-17.905,0-32.421,14.515-32.421,32.421s14.515,32.421,32.421,32.421
				c13.296,0,24.717-8.008,29.719-19.46c-2.534-3.565-4.277-7.742-4.93-12.291c-0.867-6.035,0.206-12.05,3.027-17.327
				C230.006,149.966,219.671,143.645,207.858,143.645z"/>
			<path d="M348.171,153.161l-0.018-0.027l-0.061-0.091c-5.438-8.107-40.839-60.893-46.492-69.321
				c-2.961-4.416-7.93-7.066-13.247-7.066c-2.636,0,12.086,0-85.805,0c-1.811,0-3.607,0.308-5.314,0.911l-62.171,21.966
				c-8.975,3.171-13.183,13.451-9.04,21.998l28.178,58.134c2.153,4.442,6.098,7.425,10.543,8.522
				c-1.087-3.859-1.681-7.922-1.681-12.123c0-11.088,4.058-21.24,10.756-29.07l-11.306-23.324l40.518-14.317v22.181
				c1.586-0.171,3.195-0.264,4.826-0.264c14.872,0,28.066,7.291,36.218,18.479c3.674-2.664,7.962-4.416,12.581-5.079l30.867-4.433
				v-20.231c12.834,19.136,10.648,15.876,20.023,29.855l-48.241,6.929c-10.569,1.519-15.567,10.139-14.412,18.184
				c1.252,8.719,9.375,14.773,18.057,13.521l74.24-10.663C348.616,176.196,354.801,163.084,348.171,153.161z"/>
		</g>
	</g>
</g>
<g>
</g>
<g>
</g>
<g>
</g>
<g>
</g>
<g>
</g>
<g>
</g>
<g>
</g>
<g>
</g>
<g>
</g>
<g>
</g>
<g>
</g>
<g>
</g>
<g>
</g>
<g>
</g>
<g>
</g>
</svg>
