<?xml version="1.0" encoding="iso-8859-1"?>
<!-- Generator: Adobe Illustrator 19.0.0, SVG Export Plug-In . SVG Version: 6.00 Build 0)  -->
<svg version="1.1" id="Layer_1" xmlns="http://www.w3.org/2000/svg" xmlns:xlink="http://www.w3.org/1999/xlink" x="0px" y="0px"
	 viewBox="0 0 512 512" style="enable-background:new 0 0 512 512;" xml:space="preserve">
<g>
	<g>
		<circle cx="461.279" cy="74.105" r="10.555"/>
	</g>
</g>
<g>
	<g>
		<circle cx="84.287" cy="74.105" r="10.555"/>
	</g>
</g>
<g>
	<g>
		<path d="M492.229,43.161c-26.319-26.319-69.144-26.319-95.463,0c0,0,0,0,0,0.001c-12.75,12.748-19.771,29.701-19.771,47.731
			c0,8.974,1.741,17.678,5.06,25.733L256.001,272.484L129.945,116.626c3.319-8.055,5.06-16.759,5.06-25.733
			c0-18.03-7.021-34.983-19.771-47.731c0-0.001,0-0.001,0-0.001C88.915,16.842,46.09,16.843,19.771,43.162
			C7.021,55.911,0,72.864,0,90.893c0,18.03,7.021,34.981,19.771,47.731c12.75,12.748,29.701,19.771,47.731,19.771
			s34.983-7.023,47.731-19.771c1.547-1.547,3.005-3.159,4.381-4.823l129.084,159.601c0.015,0.018,0.029,0.035,0.043,0.053
			l31.776,39.287L143.08,184.716c-3.538-3.809-9.495-4.032-13.306-0.493c-3.811,3.538-4.031,9.495-0.493,13.307l100.123,107.838
			L97.515,468.438c-4.209,5.205-3.544,12.717,1.514,17.102c2.348,2.034,5.227,3.037,8.095,3.037c3.312,0,6.607-1.336,9.049-3.964
			l139.827-150.6l139.829,150.601c2.44,2.629,5.736,3.965,9.048,3.965c2.869-0.001,5.75-1.004,8.097-3.039
			c5.058-4.385,5.722-11.897,1.513-17.102l-131.89-163.07l139.871-150.646c6.996,2.408,14.414,3.674,22.031,3.674
			c18.031,0,34.983-7.023,47.731-19.771C504.979,125.875,512,108.923,512,90.893C512,72.864,504.979,55.911,492.229,43.161z
			 M110.643,113.461c-0.043,0.079-0.08,0.159-0.121,0.239c-2.245,4.221-5.128,8.132-8.604,11.609
			c-9.193,9.193-21.416,14.256-34.416,14.256c-13.001,0-25.223-5.063-34.416-14.256c-9.192-9.192-14.255-21.414-14.255-34.415
			c0-13.001,5.063-25.224,14.255-34.416c9.489-9.489,21.953-14.234,34.416-14.234c12.463,0,24.927,4.744,34.416,14.232
			c9.193,9.193,14.255,21.417,14.255,34.418C116.175,98.885,114.254,106.581,110.643,113.461z M231.483,332.742l10.865-13.434
			l0.803,0.865L231.483,332.742z M270.633,290.576l-2.523-3.12l124.274-153.654c1.376,1.665,2.835,3.277,4.381,4.823
			c2.615,2.615,5.417,4.976,8.358,7.098L270.633,290.576z M478.914,125.309c-9.193,9.193-21.416,14.256-34.416,14.256
			c-7.162,0-14.085-1.544-20.399-4.462c-0.098-0.048-0.198-0.088-0.297-0.132c-5.033-2.366-9.672-5.613-13.721-9.663
			c-3.476-3.476-6.36-7.387-8.604-11.609c-0.04-0.079-0.078-0.161-0.12-0.239c-3.611-6.881-5.531-14.576-5.531-22.568
			c0-13.001,5.063-25.224,14.255-34.418v0.001c18.978-18.976,49.855-18.975,68.833-0.001c9.193,9.193,14.255,21.417,14.255,34.418
			C493.169,103.894,488.108,116.117,478.914,125.309z"/>
	</g>
</g>
<g>
	<g>
		<circle cx="114.705" cy="170.004" r="10.26"/>
	</g>
</g>
<g>
</g>
<g>
</g>
<g>
</g>
<g>
</g>
<g>
</g>
<g>
</g>
<g>
</g>
<g>
</g>
<g>
</g>
<g>
</g>
<g>
</g>
<g>
</g>
<g>
</g>
<g>
</g>
<g>
</g>
</svg>
