<?xml version="1.0" encoding="iso-8859-1"?>
<!-- Generator: Adobe Illustrator 18.0.0, SVG Export Plug-In . SVG Version: 6.00 Build 0)  -->
<!DOCTYPE svg PUBLIC "-//W3C//DTD SVG 1.1//EN" "http://www.w3.org/Graphics/SVG/1.1/DTD/svg11.dtd">
<svg version="1.1" id="Capa_1" xmlns="http://www.w3.org/2000/svg" xmlns:xlink="http://www.w3.org/1999/xlink" x="0px" y="0px"
	 viewBox="0 0 298.897 298.897" style="enable-background:new 0 0 298.897 298.897;" xml:space="preserve">
<g>
	<path d="M232.886,9.9c0-5.468-4.432-9.9-9.9-9.9h-65.662c-5.468,0-9.901,4.433-9.901,9.9v18.188h85.463V9.9z"/>
	<rect x="14.744" y="43.089" width="85.463" height="16"/>
	<path d="M100.207,9.9c0-5.468-4.433-9.9-9.9-9.9H24.644c-5.468,0-9.9,4.433-9.9,9.9v18.188h85.463V9.9z"/>
	<path d="M129.701,244.381c-25.431,0-46.315,19.788-48.097,44.774c7.727,6.361,17.384,9.742,27.186,9.742
		c8.058,0,16.208-2.276,23.444-7.037c14.518-9.55,21.298-26.434,18.693-42.545C144.517,246.16,137.314,244.381,129.701,244.381z"/>
	<path d="M129.701,229.381c4.652,0,9.183,0.52,13.551,1.477l-43.046-65.436V74.089H14.744v104.128
		c0,8.347,2.445,16.512,7.032,23.484l47.511,72.224C77.277,248.153,101.337,229.381,129.701,229.381z"/>
	<rect x="147.423" y="43.089" width="85.463" height="16"/>
	<path d="M262.381,229.381c4.652,0,9.182,0.52,13.551,1.477l-43.046-65.436V74.089h-85.463v104.128
		c0,8.347,2.445,16.512,7.032,23.484l47.511,72.224C209.957,248.153,234.017,229.381,262.381,229.381z"/>
	<path d="M283.606,249.315c-6.409-3.155-13.612-4.934-21.225-4.934c-25.432,0-46.315,19.788-48.097,44.774
		c7.727,6.361,17.384,9.742,27.185,9.742c8.059,0,16.209-2.276,23.444-7.037C279.431,282.31,286.211,265.426,283.606,249.315z"/>
</g>
<g>
</g>
<g>
</g>
<g>
</g>
<g>
</g>
<g>
</g>
<g>
</g>
<g>
</g>
<g>
</g>
<g>
</g>
<g>
</g>
<g>
</g>
<g>
</g>
<g>
</g>
<g>
</g>
<g>
</g>
</svg>
