<?xml version="1.0" standalone="no"?>
<!DOCTYPE svg PUBLIC "-//W3C//DTD SVG 20010904//EN"
 "http://www.w3.org/TR/2001/REC-SVG-20010904/DTD/svg10.dtd">
<svg version="1.0" xmlns="http://www.w3.org/2000/svg"
 width="512.000000pt" height="512.000000pt" viewBox="0 0 512.000000 512.000000"
 preserveAspectRatio="xMidYMid meet">

<g transform="translate(0.000000,512.000000) scale(0.100000,-0.100000)"
fill="#000000" stroke="none">
<path d="M2525 5111 c-51 -22 -60 -46 -63 -172 l-4 -119 -67 0 c-60 0 -72 -3
-93 -25 -33 -33 -38 -61 -38 -226 l0 -138 -32 -5 c-355 -48 -546 -113 -778
-264 -421 -273 -692 -713 -750 -1217 -6 -56 -10 -498 -10 -1172 l0 -1083 -38
0 c-103 0 -219 -55 -281 -133 -77 -98 -94 -255 -37 -365 35 -68 97 -128 166
-161 l55 -26 2005 0 2005 0 55 26 c30 14 74 44 97 67 124 121 138 325 32 459
-62 78 -178 133 -281 133 l-38 0 0 1083 c0 674 -4 1116 -10 1172 -78 676 -546
1234 -1191 1419 -72 20 -189 42 -336 62 l-33 5 0 138 c0 165 -5 193 -38 226
-21 22 -33 25 -93 25 l-67 0 -4 120 c-3 112 -5 121 -28 145 -28 27 -74 39
-105 26z m135 -581 l0 -100 -100 0 -100 0 0 100 0 100 100 0 100 0 0 -100z
m-399 -837 c0 -389 3 -548 12 -573 15 -45 64 -70 135 -70 l52 0 0 -151 c0
-116 4 -159 15 -184 35 -73 135 -73 170 0 11 25 15 68 15 184 l0 151 53 0 c70
0 119 25 134 70 9 25 12 184 12 573 l1 538 58 -6 c326 -36 621 -172 854 -394
241 -229 390 -511 443 -836 13 -81 15 -259 15 -1200 l0 -1105 -1670 0 -1670 0
0 100 0 100 264 0 263 0 26 26 c42 42 42 97 0 139 l-26 25 -263 0 -264 0 0
913 c0 953 1 979 45 1145 106 411 410 776 796 956 159 74 342 123 507 134 l22
2 1 -537z m399 47 l0 -490 -100 0 -100 0 0 490 0 490 100 0 100 0 0 -490z
m1885 -3264 c38 -16 72 -63 81 -112 8 -45 -26 -118 -68 -144 -33 -20 -43 -20
-1998 -20 -1955 0 -1965 0 -1998 20 -42 26 -76 99 -68 144 9 48 43 96 79 111
49 22 3921 22 3972 1z"/>
<path d="M1611 1054 c-66 -55 -25 -164 62 -164 53 0 97 43 97 95 0 27 -8 44
-29 66 -39 38 -87 39 -130 3z"/>
</g>
</svg>
